<svg width="800" height="800" viewBox="0 0 800 800" fill="none" xmlns="http://www.w3.org/2000/svg">
<path d="M750.77 30.769H512.308C496.923 30.769 492.308 44.6152 504.616 56.9229L580 132.308L441.539 270.769C433.846 278.461 433.846 290.769 441.539 300L498.462 356.923C506.154 364.615 518.462 364.615 527.693 356.923L667.693 216.923L743.077 292.307C755.385 304.615 769.231 300 769.231 284.615V47.6921C769.231 38.4613 760 30.769 750.77 30.769Z" fill="black"/>
<path d="M400 76H176C120.772 76 76 120.772 76 176V624C76 679.228 120.772 724 176 724H624C679.228 724 724 679.228 724 624V400" stroke="black" stroke-width="110" stroke-linecap="round"/>
</svg>
